<svg width="414" height="672" viewBox="0 0 414 672" fill="none" xmlns="http://www.w3.org/2000/svg">
<rect width="414" height="672" fill="#D8FFAA"/>
<path d="M246.497 289.228C237.378 285.358 227.203 284.752 217.689 287.511L198.524 292.539L191.73 291.687L177.059 287.511C167.545 284.752 157.37 285.358 148.251 289.228C136.357 294.358 124.061 306.085 125.027 332.734C126.445 371.901 152.134 396.364 165.381 402.752C169.757 404.862 173.376 405.923 177.862 406.139C181.788 406.333 186.869 405.385 191.594 404.362C193.651 403.885 195.767 403.703 197.876 403.824L268.163 316.327C264.215 299.932 254.894 292.85 246.497 289.228V289.228Z" fill="#689B2D"/>
<path d="M193.318 282.245C193.045 283.48 192.802 284.704 192.586 285.901C171.652 284.26 154.211 272.086 137.27 280.873C124.755 287.364 119.17 286.113 117.105 285.018C116.959 284.942 116.83 284.837 116.725 284.71C116.62 284.583 116.542 284.436 116.495 284.278C116.447 284.12 116.432 283.955 116.449 283.791C116.467 283.627 116.517 283.469 116.597 283.324C149.834 223.188 194.75 276.747 194.75 276.747C194.193 278.584 193.719 280.43 193.318 282.245V282.245Z" fill="#4CA987"/>
<path d="M268.163 316.327C263.761 314.331 259.191 312.729 254.507 311.538H254.503L249.142 310.822C228.609 309.658 223.581 310.606 212.828 314.137V314.141C215.927 313.194 218.909 312.925 221.565 313.432C230.822 315.194 236.183 321.135 239.29 327.607C239.321 327.672 239.351 327.732 239.381 327.797L252.742 328.388C252.795 328.323 252.844 328.259 252.901 328.198C258.05 321.946 265.655 317.483 276.484 321.022C277.421 321.331 278.329 321.719 279.201 322.181C275.665 319.97 271.977 318.014 268.163 316.327V316.327Z" fill="#436F1E"/>
<path d="M251.794 301L256.705 303.463C256.705 303.463 255.58 307.65 254.507 311.538H254.503C253.928 313.618 253.367 315.615 252.995 316.835C251.332 322.314 252.15 325.618 252.742 328.388C252.507 328.676 252.276 328.971 252.052 329.267C250.965 330.703 249.161 329.487 248.013 328.437C247.674 328.128 247.257 327.918 246.808 327.83C246.358 327.742 245.893 327.779 245.463 327.937C243.504 328.653 240.207 329.543 239.381 327.797C242.037 325.368 243.724 325.08 245.52 320.234C247.721 314.285 247.948 314.793 249.142 310.822C249.707 308.939 250.487 306.055 251.794 301V301Z" fill="#7F5F47"/>
<path d="M279.208 322.185C279.205 322.185 279.203 322.183 279.201 322.181C278.329 321.719 277.421 321.331 276.484 321.022C265.655 317.483 258.05 321.946 252.901 328.198C252.844 328.259 252.795 328.323 252.742 328.388C252.507 328.676 252.276 328.971 252.052 329.267C250.965 330.703 249.161 329.487 248.013 328.437C247.674 328.128 247.257 327.918 246.808 327.83C246.358 327.742 245.893 327.779 245.463 327.937C243.504 328.653 240.207 329.543 239.381 327.797C239.351 327.732 239.321 327.672 239.29 327.607C236.183 321.135 230.822 315.194 221.565 313.432C218.909 312.925 215.927 313.194 212.828 314.141C201.309 317.642 188.206 330.479 184.542 347.579C180.245 367.624 185.857 392.7 197.876 403.824C202.586 408.185 208.281 410.402 214.745 409.341C220.122 408.454 224.013 405.518 226.752 402.297C229.298 399.236 231.217 395.703 232.398 391.9C232.315 392.294 231.061 398.599 233.751 405.044C235.252 408.652 237.798 411.729 241.06 413.88C261.006 427.324 289.84 397.731 296.388 368.999C301.113 348.273 290.75 328.251 279.208 322.185V322.185Z" fill="#F7E8A9"/>
<path d="M232.398 391.9C231.217 395.703 229.298 399.236 226.752 402.297C228.745 395.39 223.967 386.304 221.012 381.59C218.952 378.36 217.727 374.669 217.446 370.848C216.863 361.944 221.44 358.829 224.691 356.741C230.485 352.964 234.714 347.215 236.593 340.558C238.017 335.617 239.26 330.506 239.29 327.607C239.321 327.672 239.351 327.732 239.381 327.797C240.207 329.543 243.504 328.653 245.463 327.937C245.893 327.779 246.358 327.742 246.808 327.83C247.257 327.918 247.674 328.128 248.013 328.437C249.161 329.487 250.965 330.703 252.052 329.267C252.276 328.971 252.507 328.676 252.742 328.388C252.795 328.323 252.844 328.259 252.901 328.198C251.866 330.908 250.813 339.444 250.328 344.559C249.639 351.437 251.47 358.331 255.481 363.96C257.739 367.085 260.862 371.648 257.057 379.726C255.395 383.182 252.902 386.172 249.801 388.429C245.323 391.741 234.421 397.887 233.751 405.044C231.061 398.599 232.315 392.294 232.398 391.9V391.9Z" fill="#F8CF69"/>
<path d="M248.267 363.516C248.267 363.516 253.658 376.759 246.626 376.251C239.139 375.709 248.267 363.516 248.267 363.516Z" fill="#6D6653"/>
<path d="M232.409 360.178C232.409 360.178 231.97 375.383 225.763 371.178C219.932 367.226 232.409 360.178 232.409 360.178V360.178Z" fill="#6D6653"/>
<path d="M136.395 332.734C135.428 306.085 147.724 294.358 159.618 289.228C163.139 287.716 166.851 286.696 170.65 286.197C163.047 285.171 155.308 286.218 148.251 289.228C136.357 294.358 124.061 306.085 125.027 332.734C126.445 371.901 152.134 396.364 165.381 402.752C169.757 404.862 173.376 405.923 177.862 406.139C180.236 406.199 182.611 406.028 184.951 405.627C182.103 405.03 179.346 404.063 176.748 402.752C163.502 396.364 137.812 371.901 136.395 332.734V332.734Z" fill="#517227"/>
<path d="M195.909 347.579C199.573 330.479 212.676 317.642 224.195 314.141C224.233 314.13 224.271 314.121 224.306 314.11C223.405 313.835 222.49 313.608 221.565 313.432C218.909 312.925 215.927 313.194 212.828 314.141C201.309 317.642 188.206 330.479 184.542 347.579C180.245 367.624 185.857 392.7 197.876 403.824C202.586 408.185 208.281 410.402 214.745 409.341C215.626 409.195 216.497 408.986 217.349 408.718C214.322 407.699 211.555 406.029 209.243 403.824C197.224 392.7 191.613 367.624 195.909 347.579V347.579Z" fill="#CEC28E"/>
<path d="M193.317 284.518C192.856 284.518 192.406 284.377 192.026 284.114C171.465 269.902 154.265 266.025 139.441 272.259C139.165 272.381 138.867 272.446 138.566 272.451C138.264 272.456 137.965 272.401 137.685 272.289C137.405 272.178 137.15 272.011 136.934 271.8C136.719 271.589 136.548 271.337 136.431 271.059C136.314 270.781 136.254 270.483 136.253 270.181C136.253 269.88 136.313 269.581 136.429 269.303C136.545 269.024 136.715 268.772 136.929 268.56C137.144 268.348 137.399 268.181 137.678 268.069C144.806 265.069 152.21 264.173 160.307 265.327C170.786 266.82 182.328 271.882 194.612 280.374C195.011 280.65 195.312 281.046 195.47 281.504C195.628 281.963 195.635 282.46 195.49 282.923C195.345 283.385 195.057 283.79 194.666 284.077C194.275 284.364 193.802 284.519 193.317 284.518V284.518Z" fill="#3E8468"/>
<path d="M129.746 277.265C129.255 277.265 128.777 277.107 128.383 276.813C127.989 276.518 127.701 276.105 127.563 275.633C127.424 275.162 127.442 274.658 127.613 274.198C127.785 273.737 128.101 273.345 128.514 273.079C129.581 272.392 130.838 271.592 132.243 270.783C132.501 270.632 132.788 270.533 133.085 270.493C133.382 270.452 133.684 270.471 133.974 270.548C134.264 270.625 134.536 270.759 134.774 270.941C135.012 271.124 135.212 271.351 135.361 271.611C135.511 271.871 135.608 272.158 135.646 272.456C135.684 272.753 135.663 273.055 135.584 273.345C135.505 273.634 135.369 273.905 135.185 274.142C135.001 274.378 134.772 274.576 134.511 274.724C133.196 275.482 131.996 276.245 130.974 276.903C130.608 277.139 130.182 277.265 129.746 277.265V277.265Z" fill="#3E8468"/>
<path d="M232.406 394.156C232.321 394.156 232.235 394.151 232.15 394.141C231.551 394.074 231.003 393.772 230.627 393.3C230.251 392.829 230.077 392.228 230.144 391.629C231.441 380.072 239.597 354.485 239.943 353.402C240.033 353.116 240.178 352.851 240.371 352.621C240.564 352.392 240.8 352.203 241.065 352.065C241.331 351.927 241.622 351.843 241.92 351.818C242.219 351.793 242.519 351.827 242.804 351.918C243.09 352.009 243.354 352.156 243.582 352.349C243.811 352.543 243.999 352.78 244.135 353.047C244.272 353.313 244.354 353.604 244.378 353.902C244.402 354.201 244.367 354.501 244.274 354.786C244.191 355.048 235.909 381.028 234.663 392.135C234.601 392.69 234.336 393.203 233.92 393.576C233.504 393.949 232.965 394.155 232.406 394.156V394.156Z" fill="#D3AE5B"/>
<path d="M139 341.87C138.441 341.869 137.902 341.663 137.486 341.291C137.07 340.918 136.806 340.406 136.743 339.851C136.567 338.282 136.434 336.674 136.35 335.07C136.335 334.772 136.378 334.473 136.478 334.192C136.577 333.91 136.731 333.651 136.931 333.43C137.131 333.208 137.373 333.027 137.642 332.899C137.912 332.77 138.204 332.696 138.502 332.681C138.8 332.665 139.098 332.708 139.38 332.808C139.661 332.908 139.92 333.062 140.142 333.262C140.364 333.461 140.544 333.703 140.673 333.972C140.801 334.242 140.875 334.534 140.891 334.832C140.97 336.348 141.095 337.863 141.262 339.341C141.297 339.659 141.265 339.981 141.167 340.286C141.07 340.591 140.909 340.872 140.695 341.111C140.482 341.349 140.221 341.54 139.928 341.671C139.636 341.802 139.32 341.869 139 341.87V341.87Z" fill="#F4F8FC"/>
<path d="M152.927 376.126C152.35 376.127 151.794 375.906 151.374 375.51C150.962 375.122 141.239 365.789 137.588 346.539C137.475 345.947 137.603 345.334 137.942 344.836C138.282 344.337 138.805 343.994 139.398 343.882C139.99 343.77 140.603 343.897 141.101 344.237C141.6 344.576 141.943 345.1 142.055 345.692C145.413 363.395 154.404 372.117 154.495 372.203C154.825 372.516 155.054 372.92 155.151 373.365C155.249 373.809 155.211 374.273 155.042 374.695C154.874 375.118 154.582 375.48 154.205 375.735C153.828 375.99 153.384 376.127 152.929 376.126H152.927Z" fill="#F4F8FC"/>
<path d="M192.586 285.901C192.802 284.704 193.045 283.48 193.318 282.245C193.719 280.43 194.193 278.584 194.75 276.747C196.929 269.54 200.373 262.443 205.822 257.748C205.897 257.923 208.383 263.69 214.419 262.488C214.419 262.488 201.316 273.386 198.524 292.539C197.938 296.579 197.844 300.674 198.243 304.736C197.755 304.779 197.263 304.786 196.773 304.759C196.773 304.759 194.223 305.021 191.014 303.376C191.014 299.469 191.253 295.565 191.73 291.687C191.946 289.872 192.226 287.924 192.586 285.901V285.901Z" fill="#7F5F47"/>
<path d="M197.281 307.048C197.067 307.048 196.898 307.043 196.779 307.037C195.642 307.094 190.567 307.037 185.711 302.301C182.167 298.846 176.856 301.194 176.803 301.218C176.254 301.467 175.628 301.487 175.064 301.275C174.5 301.062 174.043 300.634 173.794 300.085C173.545 299.536 173.525 298.91 173.737 298.346C173.95 297.781 174.378 297.324 174.927 297.076C175.259 296.924 183.144 293.447 188.885 299.046C192.712 302.777 196.504 302.503 196.542 302.498C196.681 302.484 196.82 302.483 196.959 302.494C196.997 302.498 202.008 302.804 205.863 299.046C211.604 293.448 219.489 296.924 219.821 297.076C220.371 297.323 220.8 297.779 221.014 298.343C221.227 298.907 221.208 299.533 220.961 300.082C220.713 300.632 220.257 301.061 219.693 301.275C219.13 301.488 218.504 301.469 217.954 301.222C217.723 301.12 212.536 298.892 209.037 302.301C204.594 306.635 199.184 307.048 197.281 307.048V307.048Z" fill="#465E23"/>
<path d="M211.706 256.46C213.441 257.165 215.037 258.79 214.419 262.488C208.383 263.69 205.897 257.923 205.822 257.748C205.988 257.601 206.159 257.457 206.333 257.316C207.07 256.706 207.958 256.305 208.903 256.154C209.848 256.004 210.816 256.109 211.706 256.46V256.46Z" fill="#8E6549"/>
</svg>
