<svg width="414" height="672" viewBox="0 0 414 672" fill="none" xmlns="http://www.w3.org/2000/svg">
<rect width="414" height="672" fill="#FFF3A8"/>
<path d="M129.423 352.399L127.926 360.837L120.302 366.297C117.499 364.225 114.217 361.701 114.168 360.045C114.085 357.257 117.567 352.793 117.567 352.793C119.889 351.471 126.062 352.558 129.423 352.399V352.399Z" fill="#706A37"/>
<path d="M262.09 283.116L264.628 277.997C268.857 279.493 272.813 279.914 275.351 281.248C289.685 288.75 299.548 311.473 299.81 325.061C300.48 360.018 286.347 384.935 269.16 400.868C262.635 406.916 251.025 415.865 232.304 417.036C231.387 417.093 230.216 417.222 228.958 417.347L232.811 407.325L227.075 400.133C230.853 395.105 236.161 389.486 240.064 384.196C249.775 375.557 258.009 363.576 263.423 346.802C267.944 332.798 270.21 307.093 260.589 293.524C258.888 291.118 255.459 288.886 252.287 285.544L261.366 284.574L262.09 283.116Z" fill="#FFF27D"/>
<path d="M299.81 325.061C299.548 311.473 289.685 288.75 275.351 281.248C272.813 279.914 268.857 279.493 264.628 277.997L262.09 283.116L261.366 284.574L261.342 284.577C269.848 294.284 275.577 308.203 276.261 317.801C278.744 352.677 265.922 378.294 249.586 395.098C245.887 398.898 240.438 403.824 232.692 407.635L228.958 417.347C230.216 417.222 231.387 417.093 232.304 417.036C251.026 415.865 262.636 406.916 269.16 400.869C286.348 384.935 300.48 360.019 299.81 325.061V325.061Z" fill="#FFE33B"/>
<path d="M164.221 387.239L160.523 380.358C167.662 377.001 181.306 372.09 186.793 370.211C208.046 362.932 226.411 337.625 231.511 316.092C232.819 310.567 234.304 305.494 239.7 289.838C239.893 289.27 240.021 288.683 240.082 288.087L246.205 290.076L252.283 285.544H252.287C255.458 288.886 258.887 291.118 260.589 293.524C270.209 307.093 267.943 332.798 263.423 346.802C258.008 363.576 249.775 375.557 240.063 384.197C229.886 393.249 218.087 398.64 206.201 402.043C197.38 404.57 176.589 405.893 157.382 398.337L164.221 387.239Z" fill="#FFF27D"/>
<path d="M260.589 293.525C258.888 291.119 255.459 288.887 252.287 285.545H252.283L248.221 288.576C252.703 303.016 249.368 323.145 244.879 334.787C238.538 351.234 229.649 362.737 219.471 370.821C208.805 379.292 196.723 384.018 184.666 386.752C180.186 387.769 172.728 388.318 164.043 387.531L157.383 398.339C176.59 405.895 197.38 404.572 206.201 402.045C218.087 398.643 229.887 393.25 240.064 384.198C249.775 375.559 258.009 363.578 263.424 346.804C267.944 332.798 270.21 307.093 260.589 293.525V293.525Z" fill="#F9D438"/>
<path d="M127.926 360.837L129.423 352.399C129.778 352.386 130.131 352.348 130.48 352.285C136.653 351.103 151.282 349.799 158.228 349.114C175.65 347.397 203.882 329.948 214.105 311.087C216.727 306.248 218.496 301.155 227.511 287.875C227.835 287.392 228.1 286.872 228.299 286.325L239.215 288.049L240.064 288.079L240.083 288.087C240.022 288.683 239.893 289.27 239.7 289.837C234.304 305.494 232.819 310.567 231.512 316.092C226.412 337.625 208.046 362.932 186.793 370.211C181.307 372.09 167.662 377.001 160.524 380.358C158.898 381.124 155.579 381.628 152.665 382.351C144.882 380.794 133.011 376.334 122.989 368.317C122.273 367.744 121.318 367.051 120.303 366.297L127.926 360.837Z" fill="#F8EE4F"/>
<path d="M228.299 286.325C228.094 286.879 216.727 306.248 214.105 311.087C203.882 329.949 175.65 347.397 158.228 349.114C151.282 349.8 136.653 351.103 130.48 352.285C130.131 352.349 129.778 352.387 129.423 352.399L127.926 360.837C127.926 360.837 147.656 365.684 162.943 361.931C179.945 357.756 208.598 342.765 218.821 323.904C221.443 319.065 235.72 287.498 235.72 287.498L228.299 286.325Z" fill="#FFFAC1"/>
<path d="M227.075 400.133L232.811 407.325L228.958 417.347C225.487 417.696 221.361 418.033 220.213 416.839C218.277 414.831 217.852 409.189 217.852 409.189C218.781 406.347 225.286 402.509 227.075 400.133V400.133Z" fill="#7F7841"/>
<path d="M252.287 285.544H252.283L246.206 290.076L240.083 288.087C240.844 281.27 234.338 271.976 234.338 271.976L234.35 266.997C234.35 266.997 230.254 260.855 232.997 255.869C233.144 255.648 233.343 255.467 233.576 255.34C233.809 255.213 234.069 255.145 234.335 255.141C234.335 255.137 234.338 255.141 234.338 255.141C237.051 254.804 242.477 257.21 242.477 257.21C242.72 257.471 242.947 257.725 243.156 257.979C246.676 262.257 245.3 265.546 245.38 268.645C245.584 276.796 248.779 281.85 252.287 285.544V285.544Z" fill="#706A37"/>
<path d="M234.338 271.976C234.338 271.976 240.844 281.27 240.083 288.087L240.064 288.079L239.215 288.049L228.299 286.325C230.595 280.13 226.033 269.706 226.033 269.706L228.284 265.103C228.284 265.103 226.003 258.294 229.837 254.326L234.335 255.141C234.069 255.145 233.809 255.213 233.576 255.34C233.343 255.467 233.144 255.648 232.997 255.869C230.254 260.855 234.35 266.997 234.35 266.997L234.338 271.976Z" fill="#8C8448"/>
<path d="M164.425 389.514C164.284 389.514 164.2 389.514 164.177 389.514C163.574 389.502 163.001 389.251 162.583 388.816C162.165 388.382 161.937 387.799 161.949 387.196C161.961 386.593 162.211 386.019 162.646 385.601C163.081 385.183 163.664 384.955 164.267 384.967C167.942 384.912 171.604 384.502 175.2 383.742C175.493 383.684 175.794 383.683 176.087 383.741C176.38 383.799 176.659 383.914 176.907 384.08C177.155 384.245 177.369 384.458 177.535 384.706C177.701 384.954 177.817 385.232 177.876 385.525C177.934 385.818 177.935 386.119 177.877 386.412C177.819 386.705 177.704 386.984 177.538 387.232C177.373 387.481 177.16 387.694 176.912 387.86C176.664 388.026 176.385 388.142 176.093 388.201C172.253 389.003 168.347 389.443 164.425 389.514V389.514Z" fill="#FFE33B"/>
<path d="M282.632 304.062C282.202 304.063 281.78 303.941 281.417 303.711C281.053 303.482 280.762 303.154 280.578 302.765C274.25 289.47 268.501 286.197 261.811 285.374C261.515 285.337 261.229 285.242 260.969 285.095C260.709 284.948 260.481 284.751 260.297 284.516C260.114 284.281 259.978 284.011 259.899 283.724C259.819 283.436 259.797 283.135 259.833 282.839C259.87 282.543 259.964 282.256 260.112 281.997C260.259 281.737 260.456 281.509 260.691 281.325C260.926 281.141 261.196 281.006 261.483 280.926C261.771 280.846 262.072 280.824 262.368 280.861C274.338 282.336 280.168 291.322 284.683 300.812C284.848 301.159 284.923 301.542 284.9 301.925C284.878 302.308 284.758 302.679 284.553 303.003C284.349 303.328 284.065 303.595 283.729 303.781C283.393 303.966 283.015 304.063 282.632 304.064V304.062Z" fill="#F9D438"/>
<path d="M264.628 277.997L262.09 283.116L261.366 284.574L252.287 285.544C248.779 281.85 245.584 276.796 245.38 268.645C245.3 265.546 246.676 262.257 243.156 257.979L243.599 257.824C249.438 259.93 249.65 263.629 251.173 266.425C254.955 273.374 259.956 276.341 264.628 277.997V277.997Z" fill="#8C8448"/>
<path d="M152.665 382.351C155.579 381.628 158.898 381.124 160.523 380.358L164.221 387.239L157.382 398.337C154.082 397.038 147.065 394.749 146.39 392.529C145.557 389.778 147.822 384.394 147.822 384.394C148.728 383.488 150.596 382.863 152.665 382.351V382.351Z" fill="#706A37"/>
</svg>
