<?xml version="1.0"?>
<svg xmlns="http://www.w3.org/2000/svg" xmlns:xlink="http://www.w3.org/1999/xlink" xmlns:svgjs="http://svgjs.com/svgjs" version="1.1" width="512" height="512" x="0" y="0" viewBox="0 0 512 512" style="enable-background:new 0 0 512 512" xml:space="preserve"><g><path xmlns="http://www.w3.org/2000/svg" d="m120 150c22.910156 0 43.089844-6.253906 59.753906-14.234375-16.917968 31.832031-27.054687 68.679687-29.066406 106.679687-67.644531 7.261719-120.6875 64.011719-120.6875 133.554688 0 74.441406 60.558594 136 135 136 22.933594 0 44.902344-6.460938 64.605469-17.269531-30.566407-29.964844-49.605469-72.644531-49.605469-118.730469s19.039062-87.765625 49.605469-117.730469c-15.171875-8.324219-31.703125-13.984375-48.964844-16.183593 6.523437-106.023438 86.59375-193.476563 189.832031-209.433594-26.292968 36.914062-40.472656 80.960937-40.472656 127.207031v82.65625c-67.316406 7.574219-120 64.175781-120 133.484375 0 74.441406 60.558594 136 135 136s135-61.558594 135-136c0-69.308594-52.683594-125.910156-120-133.484375v-82.65625c0-50.714844 19.746094-98.394531 55.605469-134.253906l25.605469-25.605469h-36.210938c-70.453125 0-134.304688 28.730469-180.503906 75.074219-12.128906-11.644531-51.019532-45.074219-104.496094-45.074219-63.28125 0-106.582031 47.152344-108.675781 49.160156l-11.324219 10.839844 11.324219 10.839844c2.09375 2.007812 45.394531 49.160156 108.675781 49.160156zm225 181c-24.8125 0-45 20.1875-45 45h-30c0-41.351562 33.648438-75 75-75zm-180 0c-24.8125 0-45 20.1875-45 45h-30c0-41.351562 33.648438-75 75-75zm0 0" fill="#ffffff" data-original="#000000" style=""/></g></svg>
