<svg width="414" height="672" viewBox="0 0 414 672" fill="none" xmlns="http://www.w3.org/2000/svg">
<rect width="414" height="672" fill="#FFA8A8"/>
<g clip-path="url(#clip0)">
<path d="M215.716 294.41C213.519 295.134 211.155 295.763 208.61 296.287C208.61 296.287 207.203 292.898 206.315 287.648C204.345 275.98 204.943 255.107 229.284 241.789C230.738 240.996 232.278 240.225 233.904 239.487C237.067 238.052 240.753 239.932 241.472 243.329C241.784 244.815 242.093 246.519 242.347 248.387C244.216 262.393 242.746 285.514 215.716 294.41Z" fill="#368B4C"/>
<path d="M206.316 287.647C204.346 275.979 204.944 255.106 229.284 241.788C229.343 242.156 229.397 242.531 229.448 242.914C231.231 256.29 229.972 277.977 206.316 287.647Z" fill="#3FA45A"/>
<path d="M192.827 306.568C191.914 306.568 191.013 306.143 190.441 305.343L162.236 265.933C161.293 264.616 161.596 262.785 162.913 261.842C164.229 260.901 166.061 261.203 167.003 262.52L195.209 301.931C196.152 303.248 195.848 305.079 194.532 306.021C194.014 306.391 193.418 306.568 192.827 306.568Z" fill="#368B4C"/>
<path d="M180.982 316.061C161.316 349.552 132.164 337.173 120.257 330.082C117.275 328.303 116.685 324.211 119.061 321.682C121.059 319.555 123.056 317.679 125.046 316.033C149.093 296.113 171.964 309.462 178.871 314.423C180.239 315.409 180.982 316.061 180.982 316.061Z" fill="#368B4C"/>
<path d="M178.871 314.424C160.054 333.558 136.819 323.453 126.512 317.312C125.929 316.965 125.437 316.531 125.046 316.034C149.093 296.114 171.964 309.463 178.871 314.424Z" fill="#3FA45A"/>
<path d="M195.711 308.502C163.572 330.309 142.554 306.614 134.846 295.094C132.915 292.209 134.142 288.261 137.375 286.995C139.818 286.037 142.175 285.267 144.446 284.661C171.175 277.516 186.111 293.304 192.291 302.497C194.624 305.968 195.711 308.502 195.711 308.502Z" fill="#4CBA68"/>
<path d="M192.29 302.497C168.224 311.652 151.873 295.012 144.446 284.661C171.175 277.516 186.111 293.304 192.29 302.497Z" fill="#64C37D"/>
<path d="M196.922 307.812C227.85 284.318 212.105 256.835 203.649 245.851C201.532 243.1 197.399 243.003 195.167 245.662C193.479 247.672 191.997 249.659 190.698 251.618C175.392 274.667 185.585 293.862 192.325 302.654C194.869 305.973 196.922 307.812 196.922 307.812Z" fill="#4CBA68"/>
<path d="M192.325 302.654C208.684 282.769 198.135 261.961 190.698 251.618C175.392 274.667 185.585 293.862 192.325 302.654Z" fill="#64C37D"/>
<path d="M288.141 415.034C287.715 416.199 287.218 417.317 286.651 418.392C281.601 427.984 271.223 433.805 260.188 432.91C217.686 429.45 179.297 402.315 179.297 402.315C148.706 382.012 144.907 337.932 172.069 318.493L172.996 317.832L192.826 303.635L213.582 288.781C240.745 269.342 281.315 287.135 290.591 322.659C301.544 364.586 294.868 396.627 288.141 415.034Z" fill="#C70024"/>
<path d="M288.14 415.034C287.715 416.199 287.218 417.317 286.651 418.392C282.148 420.773 276.961 421.91 271.621 421.476C229.12 418.017 190.731 390.882 190.731 390.882C164.936 373.761 158.189 339.738 172.996 317.832L192.825 303.635L213.582 288.781C240.745 269.342 281.315 287.135 290.591 322.659C301.544 364.586 294.868 396.627 288.14 415.034Z" fill="#FF0C38"/>
<path d="M175.782 360.392C174.201 361.524 174.571 364.75 176.609 367.599C178.648 370.447 181.583 371.839 183.165 370.707C184.746 369.574 184.376 366.348 182.337 363.499C180.299 360.651 177.364 359.26 175.782 360.392Z" fill="black"/>
<path d="M188.674 328.028C187.092 329.16 187.463 332.387 189.501 335.235C191.54 338.084 194.475 339.475 196.056 338.343C197.638 337.211 197.268 333.984 195.229 331.136C193.191 328.287 190.256 326.896 188.674 328.028Z" fill="black"/>
<path d="M220.359 348.816C218.777 349.948 219.148 353.175 221.186 356.023C223.225 358.872 226.16 360.263 227.741 359.131C229.323 357.999 228.953 354.772 226.914 351.924C224.876 349.075 221.941 347.684 220.359 348.816Z" fill="black"/>
<path d="M265.507 300.739C263.925 301.871 264.295 305.097 266.334 307.946C268.372 310.794 271.307 312.185 272.889 311.053C274.471 309.921 274.1 306.695 272.062 303.846C270.023 300.998 267.088 299.606 265.507 300.739Z" fill="black"/>
<path d="M255.952 339.929C254.37 341.061 254.74 344.287 256.779 347.136C258.817 349.984 261.752 351.375 263.334 350.243C264.916 349.111 264.546 345.885 262.507 343.036C260.468 340.188 257.534 338.796 255.952 339.929Z" fill="black"/>
<path d="M275.796 372.984C274.215 374.116 274.585 377.343 276.624 380.192C278.662 383.04 281.597 384.431 283.179 383.299C284.76 382.167 284.39 378.94 282.352 376.092C280.313 373.244 277.378 371.852 275.796 372.984Z" fill="black"/>
<path d="M232.324 390.619C230.742 391.751 231.113 394.978 233.151 397.827C235.19 400.675 238.124 402.066 239.706 400.934C241.288 399.802 240.918 396.575 238.879 393.727C236.841 390.879 233.906 389.487 232.324 390.619Z" fill="black"/>
<path d="M262.856 406.97C261.274 408.102 261.645 411.328 263.683 414.177C265.722 417.025 268.657 418.416 270.238 417.284C271.82 416.152 271.45 412.926 269.411 410.077C267.373 407.229 264.438 405.837 262.856 406.97Z" fill="black"/>
<path d="M227.762 305.749C226.18 306.881 226.551 310.108 228.589 312.957C230.628 315.805 233.563 317.196 235.144 316.064C236.726 314.932 236.356 311.705 234.317 308.857C232.279 306.009 229.344 304.617 227.762 305.749Z" fill="black"/>
<path d="M192.191 390.96C190.61 392.092 190.98 395.319 193.018 398.168C195.057 401.016 197.992 402.407 199.574 401.275C201.155 400.143 200.785 396.916 198.746 394.068C196.708 391.22 193.773 389.828 192.191 390.96Z" fill="black"/>
</g>
<defs>
<clipPath id="clip0">
<rect width="194" height="194" fill="white" transform="translate(110 239)"/>
</clipPath>
</defs>
</svg>
